<mxfile host="app.diagrams.net" agent="Mozilla/5.0 (Windows NT 10.0; Win64; x64) AppleWebKit/537.36 (KHTML, like Gecko) Chrome/130.0.0.0 Safari/537.36" version="24.8.6">
  <diagram name="Strona-1" id="f1M70Ec5dln7nPYMjVqf">
    <mxGraphModel dx="2049" dy="1074" grid="1" gridSize="10" guides="1" tooltips="1" connect="1" arrows="1" fold="1" page="1" pageScale="1" pageWidth="827" pageHeight="1169" background="#7A7A7A" math="0" shadow="0">
      <root>
        <mxCell id="0" />
        <mxCell id="1" parent="0" />
        <mxCell id="A6T0uBXwGHE0LnWBzxkN-3" value="" style="edgeStyle=orthogonalEdgeStyle;rounded=0;orthogonalLoop=1;jettySize=auto;html=1;labelBackgroundColor=none;fontColor=default;" edge="1" parent="1" source="A6T0uBXwGHE0LnWBzxkN-1" target="A6T0uBXwGHE0LnWBzxkN-2">
          <mxGeometry relative="1" as="geometry" />
        </mxCell>
        <mxCell id="A6T0uBXwGHE0LnWBzxkN-1" value="START" style="strokeWidth=2;html=1;shape=mxgraph.flowchart.start_2;whiteSpace=wrap;labelBackgroundColor=none;" vertex="1" parent="1">
          <mxGeometry x="364" y="70" width="100" height="100" as="geometry" />
        </mxCell>
        <mxCell id="A6T0uBXwGHE0LnWBzxkN-5" value="" style="edgeStyle=orthogonalEdgeStyle;rounded=0;orthogonalLoop=1;jettySize=auto;html=1;labelBackgroundColor=none;fontColor=default;" edge="1" parent="1" source="A6T0uBXwGHE0LnWBzxkN-2" target="A6T0uBXwGHE0LnWBzxkN-4">
          <mxGeometry relative="1" as="geometry" />
        </mxCell>
        <mxCell id="A6T0uBXwGHE0LnWBzxkN-2" value="pobierz tab[]&lt;div&gt;pobierz n&lt;/div&gt;" style="shape=parallelogram;perimeter=parallelogramPerimeter;whiteSpace=wrap;html=1;fixedSize=1;strokeWidth=2;labelBackgroundColor=none;" vertex="1" parent="1">
          <mxGeometry x="354" y="270" width="120" height="60" as="geometry" />
        </mxCell>
        <mxCell id="A6T0uBXwGHE0LnWBzxkN-7" value="" style="edgeStyle=orthogonalEdgeStyle;rounded=0;orthogonalLoop=1;jettySize=auto;html=1;labelBackgroundColor=none;fontColor=default;" edge="1" parent="1" source="A6T0uBXwGHE0LnWBzxkN-4" target="A6T0uBXwGHE0LnWBzxkN-6">
          <mxGeometry relative="1" as="geometry" />
        </mxCell>
        <mxCell id="A6T0uBXwGHE0LnWBzxkN-4" value="i = 0&lt;div&gt;j = 0&lt;/div&gt;" style="whiteSpace=wrap;html=1;strokeWidth=2;labelBackgroundColor=none;" vertex="1" parent="1">
          <mxGeometry x="354" y="410" width="120" height="60" as="geometry" />
        </mxCell>
        <mxCell id="A6T0uBXwGHE0LnWBzxkN-11" value="" style="edgeStyle=orthogonalEdgeStyle;rounded=0;orthogonalLoop=1;jettySize=auto;html=1;labelBackgroundColor=none;fontColor=default;" edge="1" parent="1" source="A6T0uBXwGHE0LnWBzxkN-6" target="A6T0uBXwGHE0LnWBzxkN-10">
          <mxGeometry relative="1" as="geometry" />
        </mxCell>
        <mxCell id="A6T0uBXwGHE0LnWBzxkN-15" value="" style="edgeStyle=orthogonalEdgeStyle;rounded=0;orthogonalLoop=1;jettySize=auto;html=1;labelBackgroundColor=none;fontColor=default;" edge="1" parent="1" source="A6T0uBXwGHE0LnWBzxkN-6" target="A6T0uBXwGHE0LnWBzxkN-14">
          <mxGeometry relative="1" as="geometry" />
        </mxCell>
        <mxCell id="A6T0uBXwGHE0LnWBzxkN-6" value="i &amp;lt; n - 1" style="rhombus;whiteSpace=wrap;html=1;strokeWidth=2;labelBackgroundColor=none;" vertex="1" parent="1">
          <mxGeometry x="374" y="540" width="80" height="80" as="geometry" />
        </mxCell>
        <mxCell id="A6T0uBXwGHE0LnWBzxkN-13" value="" style="edgeStyle=orthogonalEdgeStyle;rounded=0;orthogonalLoop=1;jettySize=auto;html=1;labelBackgroundColor=none;fontColor=default;" edge="1" parent="1" source="A6T0uBXwGHE0LnWBzxkN-10" target="A6T0uBXwGHE0LnWBzxkN-12">
          <mxGeometry relative="1" as="geometry" />
        </mxCell>
        <mxCell id="A6T0uBXwGHE0LnWBzxkN-10" value="zwróć tab[]" style="whiteSpace=wrap;html=1;strokeWidth=2;labelBackgroundColor=none;shape=parallelogram;perimeter=parallelogramPerimeter;rounded=1;arcSize=12;size=0.23;" vertex="1" parent="1">
          <mxGeometry x="194" y="550" width="120" height="60" as="geometry" />
        </mxCell>
        <mxCell id="A6T0uBXwGHE0LnWBzxkN-12" value="STOP" style="ellipse;whiteSpace=wrap;html=1;strokeWidth=2;labelBackgroundColor=none;" vertex="1" parent="1">
          <mxGeometry x="14" y="540" width="80" height="80" as="geometry" />
        </mxCell>
        <mxCell id="A6T0uBXwGHE0LnWBzxkN-17" value="" style="edgeStyle=orthogonalEdgeStyle;rounded=0;orthogonalLoop=1;jettySize=auto;html=1;labelBackgroundColor=none;fontColor=default;" edge="1" parent="1" source="A6T0uBXwGHE0LnWBzxkN-14" target="A6T0uBXwGHE0LnWBzxkN-16">
          <mxGeometry relative="1" as="geometry" />
        </mxCell>
        <mxCell id="A6T0uBXwGHE0LnWBzxkN-21" value="" style="edgeStyle=orthogonalEdgeStyle;rounded=0;orthogonalLoop=1;jettySize=auto;html=1;labelBackgroundColor=none;fontColor=default;" edge="1" parent="1" source="A6T0uBXwGHE0LnWBzxkN-14" target="A6T0uBXwGHE0LnWBzxkN-20">
          <mxGeometry relative="1" as="geometry" />
        </mxCell>
        <mxCell id="A6T0uBXwGHE0LnWBzxkN-14" value="j &amp;lt; n - i -1" style="rhombus;whiteSpace=wrap;html=1;strokeWidth=2;labelBackgroundColor=none;" vertex="1" parent="1">
          <mxGeometry x="374" y="690" width="80" height="80" as="geometry" />
        </mxCell>
        <mxCell id="A6T0uBXwGHE0LnWBzxkN-16" value="i++" style="whiteSpace=wrap;html=1;strokeWidth=2;labelBackgroundColor=none;" vertex="1" parent="1">
          <mxGeometry x="514" y="700" width="120" height="60" as="geometry" />
        </mxCell>
        <mxCell id="A6T0uBXwGHE0LnWBzxkN-19" value="" style="endArrow=classic;html=1;rounded=0;exitX=0.5;exitY=0;exitDx=0;exitDy=0;labelBackgroundColor=none;fontColor=default;" edge="1" parent="1" source="A6T0uBXwGHE0LnWBzxkN-16">
          <mxGeometry width="50" height="50" relative="1" as="geometry">
            <mxPoint x="570" y="690" as="sourcePoint" />
            <mxPoint x="414" y="510" as="targetPoint" />
            <Array as="points">
              <mxPoint x="574" y="510" />
            </Array>
          </mxGeometry>
        </mxCell>
        <mxCell id="A6T0uBXwGHE0LnWBzxkN-24" value="" style="edgeStyle=orthogonalEdgeStyle;rounded=0;orthogonalLoop=1;jettySize=auto;html=1;labelBackgroundColor=none;fontColor=default;" edge="1" parent="1" source="A6T0uBXwGHE0LnWBzxkN-20" target="A6T0uBXwGHE0LnWBzxkN-23">
          <mxGeometry relative="1" as="geometry" />
        </mxCell>
        <mxCell id="A6T0uBXwGHE0LnWBzxkN-28" value="" style="edgeStyle=orthogonalEdgeStyle;rounded=0;orthogonalLoop=1;jettySize=auto;html=1;labelBackgroundColor=none;fontColor=default;" edge="1" parent="1" source="A6T0uBXwGHE0LnWBzxkN-20" target="A6T0uBXwGHE0LnWBzxkN-27">
          <mxGeometry relative="1" as="geometry" />
        </mxCell>
        <mxCell id="A6T0uBXwGHE0LnWBzxkN-20" value="tab[j] &amp;gt; tab[j+1]" style="rhombus;whiteSpace=wrap;html=1;strokeWidth=2;labelBackgroundColor=none;" vertex="1" parent="1">
          <mxGeometry x="374" y="850" width="80" height="80" as="geometry" />
        </mxCell>
        <mxCell id="A6T0uBXwGHE0LnWBzxkN-23" value="j++" style="whiteSpace=wrap;html=1;strokeWidth=2;labelBackgroundColor=none;" vertex="1" parent="1">
          <mxGeometry x="194" y="860" width="120" height="60" as="geometry" />
        </mxCell>
        <mxCell id="A6T0uBXwGHE0LnWBzxkN-26" value="" style="endArrow=classic;html=1;rounded=0;labelBackgroundColor=none;fontColor=default;" edge="1" parent="1">
          <mxGeometry width="50" height="50" relative="1" as="geometry">
            <mxPoint x="250" y="860" as="sourcePoint" />
            <mxPoint x="410" y="660" as="targetPoint" />
            <Array as="points">
              <mxPoint x="250" y="660" />
            </Array>
          </mxGeometry>
        </mxCell>
        <mxCell id="A6T0uBXwGHE0LnWBzxkN-27" value="temp = tab[j+1]&lt;div&gt;tab[j+1] = tab[j]&lt;/div&gt;&lt;div&gt;tab[j] = temp&lt;/div&gt;" style="whiteSpace=wrap;html=1;strokeWidth=2;labelBackgroundColor=none;" vertex="1" parent="1">
          <mxGeometry x="354" y="1020" width="120" height="60" as="geometry" />
        </mxCell>
        <mxCell id="A6T0uBXwGHE0LnWBzxkN-29" value="" style="endArrow=classic;html=1;rounded=0;entryX=0.452;entryY=1.028;entryDx=0;entryDy=0;entryPerimeter=0;exitX=0;exitY=0.5;exitDx=0;exitDy=0;labelBackgroundColor=none;fontColor=default;" edge="1" parent="1" source="A6T0uBXwGHE0LnWBzxkN-27" target="A6T0uBXwGHE0LnWBzxkN-23">
          <mxGeometry width="50" height="50" relative="1" as="geometry">
            <mxPoint x="350" y="1050" as="sourcePoint" />
            <mxPoint x="400" y="1000" as="targetPoint" />
            <Array as="points">
              <mxPoint x="250" y="1050" />
            </Array>
          </mxGeometry>
        </mxCell>
        <mxCell id="A6T0uBXwGHE0LnWBzxkN-30" value="TAK" style="text;html=1;align=center;verticalAlign=middle;whiteSpace=wrap;rounded=0;labelBackgroundColor=none;" vertex="1" parent="1">
          <mxGeometry x="414" y="620" width="60" height="30" as="geometry" />
        </mxCell>
        <mxCell id="A6T0uBXwGHE0LnWBzxkN-31" value="TAK" style="text;html=1;align=center;verticalAlign=middle;whiteSpace=wrap;rounded=0;labelBackgroundColor=none;" vertex="1" parent="1">
          <mxGeometry x="414" y="780" width="60" height="30" as="geometry" />
        </mxCell>
        <mxCell id="A6T0uBXwGHE0LnWBzxkN-32" value="TAK" style="text;html=1;align=center;verticalAlign=middle;whiteSpace=wrap;rounded=0;labelBackgroundColor=none;" vertex="1" parent="1">
          <mxGeometry x="414" y="950" width="60" height="30" as="geometry" />
        </mxCell>
        <mxCell id="A6T0uBXwGHE0LnWBzxkN-33" value="NIE" style="text;html=1;align=center;verticalAlign=middle;whiteSpace=wrap;rounded=0;labelBackgroundColor=none;" vertex="1" parent="1">
          <mxGeometry x="320" y="540" width="60" height="30" as="geometry" />
        </mxCell>
        <mxCell id="A6T0uBXwGHE0LnWBzxkN-34" value="NIE" style="text;html=1;align=center;verticalAlign=middle;whiteSpace=wrap;rounded=0;labelBackgroundColor=none;" vertex="1" parent="1">
          <mxGeometry x="440" y="690" width="60" height="30" as="geometry" />
        </mxCell>
        <mxCell id="A6T0uBXwGHE0LnWBzxkN-35" value="NIE" style="text;html=1;align=center;verticalAlign=middle;whiteSpace=wrap;rounded=0;labelBackgroundColor=none;" vertex="1" parent="1">
          <mxGeometry x="320" y="850" width="60" height="30" as="geometry" />
        </mxCell>
      </root>
    </mxGraphModel>
  </diagram>
</mxfile>
